<svg width="360" height="447" viewBox="0 0 360 447" fill="none" xmlns="http://www.w3.org/2000/svg">
<g clip-path="url(#clip0_11_112)">
<path d="M275.736 245.33C320.242 245.33 356.321 209.251 356.321 164.745C356.321 120.239 320.242 84.1599 275.736 84.1599C231.23 84.1599 195.15 120.239 195.15 164.745C195.15 209.251 231.23 245.33 275.736 245.33Z" fill="url(#paint0_linear_11_112)"/>
<path d="M275.489 248.542C264.21 248.542 253.268 246.333 242.967 241.976C233.017 237.768 224.083 231.743 216.409 224.071C208.736 216.398 202.712 207.462 198.503 197.513C194.147 187.212 191.937 176.27 191.937 164.991C191.937 153.712 194.147 142.769 198.503 132.469C202.712 122.519 208.736 113.585 216.409 105.91C224.081 98.2378 233.017 92.2134 242.967 88.0048C253.268 83.6483 264.21 81.439 275.489 81.439C286.768 81.439 297.71 83.6483 308.011 88.0048C317.961 92.2134 326.895 98.2378 334.569 105.91C342.242 113.583 348.266 122.519 352.475 132.469C356.831 142.769 359.041 153.712 359.041 164.991C359.041 176.27 356.831 187.212 352.475 197.513C348.266 207.462 342.242 216.397 334.569 224.071C326.896 231.743 317.961 237.768 308.011 241.976C297.71 246.333 286.768 248.542 275.489 248.542ZM275.489 81.8633C264.266 81.8633 253.38 84.0614 243.132 88.3954C233.233 92.5828 224.344 98.5762 216.709 106.211C209.074 113.845 203.081 122.735 198.894 132.634C194.56 142.882 192.362 153.768 192.362 164.991C192.362 176.213 194.56 187.099 198.894 197.348C203.081 207.247 209.074 216.136 216.709 223.771C224.344 231.405 233.233 237.399 243.132 241.586C253.38 245.92 264.266 248.118 275.489 248.118C286.712 248.118 297.597 245.92 307.846 241.586C317.745 237.399 326.634 231.405 334.269 223.771C341.903 216.136 347.897 207.247 352.084 197.348C356.418 187.099 358.616 176.213 358.616 164.991C358.616 153.768 356.418 142.882 352.084 132.634C347.897 122.735 341.903 113.845 334.269 106.211C326.634 98.5762 317.745 92.5828 307.846 88.3954C297.597 84.0614 286.712 81.8633 275.489 81.8633Z" fill="#30356B"/>
<path d="M295.894 216.515L315.176 123.898C316.951 115.374 311.108 112.722 310.012 111.933C308.368 110.75 310.865 115.3 308.698 115.121L270.26 111.928C266.708 111.633 263.474 113.999 262.642 117.501L241.2 207.85C240.994 208.714 239.177 206.464 239.274 207.293C239.648 210.502 240.807 215.582 247.273 216.787L287.871 222.249C291.618 222.752 295.117 220.253 295.894 216.515Z" fill="#44224A"/>
<path d="M293.887 212.236L313.168 119.619C314.064 115.32 311.024 111.202 306.691 110.842L268.253 107.649C264.702 107.354 261.468 109.72 260.636 113.222L239.194 203.571C238.196 207.779 241.02 211.937 245.266 212.508L285.864 217.97C289.61 218.473 293.108 215.974 293.887 212.236Z" fill="#8F529B"/>
<path d="M293.067 209.717L311.412 121.23C312.263 117.123 309.38 113.19 305.266 112.849L268.774 109.814C265.401 109.534 262.33 111.795 261.539 115.141L241.145 201.462C240.195 205.483 242.875 209.453 246.906 209.997L285.448 215.197C289.004 215.678 292.326 213.288 293.067 209.717Z" fill="url(#paint1_linear_11_112)"/>
<path opacity="0.7294" d="M302.414 163.52L258.573 127.057L253.435 148.802L297.001 189.081L302.414 163.52Z" fill="#FEDD8E"/>
<path opacity="0.7294" d="M295.753 195.097L251.804 155.706L249.771 164.312L294.297 202.126L295.753 195.097Z" fill="#FEDD8E"/>
<path d="M292.217 208.684L299.341 173.512L306.395 138.325L308.158 129.529L309.039 125.13L309.479 122.93L309.699 121.831C309.735 121.647 309.754 121.471 309.782 121.291L309.821 121.021L309.834 120.751C309.887 120.027 309.796 119.3 309.61 118.602C309.528 118.248 309.384 117.914 309.252 117.577C309.087 117.253 308.929 116.926 308.717 116.627C308.31 116.025 307.815 115.475 307.226 115.035C306.635 114.599 305.968 114.265 305.262 114.054L304.724 113.917L304.175 113.842C303.802 113.797 303.408 113.776 303.024 113.742L300.71 113.556L296.083 113.181L277.576 111.661L272.948 111.28L270.635 111.09C269.869 111.038 269.074 110.932 268.359 110.952C266.893 111 265.47 111.622 264.416 112.613C263.885 113.106 263.444 113.687 263.106 114.32L262.875 114.805C262.807 114.97 262.748 115.139 262.684 115.307C262.576 115.648 262.485 115.988 262.404 116.36L254.236 151.321L245.998 186.267L243.937 195.003L242.906 199.371C242.738 200.1 242.541 200.826 242.452 201.552C242.361 202.283 242.42 203.025 242.562 203.747C242.703 204.47 242.985 205.167 243.36 205.805C243.74 206.441 244.206 207.039 244.79 207.517C245.367 207.999 246.028 208.385 246.741 208.648L247.285 208.82L247.847 208.933C248.223 209.003 248.611 209.044 248.991 209.102L258.184 210.382L276.572 212.915L281.169 213.549L283.467 213.866C284.234 213.962 284.997 214.111 285.77 214.117C287.316 214.125 288.849 213.533 289.99 212.525C291.14 211.524 291.909 210.146 292.217 208.684ZM292.217 208.684C291.913 210.146 291.147 211.528 289.997 212.533C288.858 213.547 287.321 214.145 285.768 214.141C284.992 214.136 284.229 213.988 283.462 213.895L281.162 213.585L276.563 212.963L258.168 210.476L248.969 209.247C248.585 209.192 248.203 209.154 247.818 209.085L247.242 208.973L246.682 208.8C245.947 208.536 245.264 208.143 244.667 207.651C244.065 207.163 243.58 206.553 243.185 205.901C242.795 205.247 242.5 204.534 242.349 203.789C242.197 203.049 242.132 202.283 242.221 201.529C242.308 200.771 242.502 200.047 242.664 199.318L243.663 194.944L245.663 186.194L253.665 151.197L261.738 116.217C261.819 115.858 261.919 115.475 262.04 115.103C262.11 114.919 262.175 114.735 262.25 114.554L262.505 114.023C262.877 113.329 263.365 112.692 263.952 112.149C265.116 111.061 266.7 110.37 268.335 110.32C269.17 110.303 269.914 110.413 270.691 110.467L273.005 110.663L277.631 111.055L296.134 112.623L300.76 113.019L303.072 113.219C303.46 113.256 303.838 113.277 304.234 113.328L304.833 113.414L305.418 113.566C306.188 113.801 306.91 114.169 307.544 114.646C308.177 115.127 308.707 115.722 309.139 116.37C309.362 116.692 309.531 117.043 309.703 117.391C309.842 117.752 309.993 118.11 310.078 118.488C310.271 119.234 310.363 120.009 310.301 120.778L310.285 121.065L310.241 121.35C310.21 121.539 310.188 121.733 310.15 121.917L309.921 123.015L309.466 125.212L308.554 129.603L306.729 138.389L299.439 173.53L292.217 208.684Z" fill="#8C5197"/>
<path d="M302.55 116.702L302.696 115.01C302.698 114.976 302.673 114.945 302.639 114.942L277.287 112.725C277.253 112.722 277.223 112.747 277.22 112.781L277.075 114.473C277.072 114.507 277.098 114.538 277.131 114.541L302.484 116.758C302.517 116.761 302.548 116.736 302.55 116.702Z" fill="#5E5E5E"/>
<path d="M273.672 114.81C273.633 114.81 273.595 114.808 273.557 114.805C272.778 114.743 272.198 114.048 272.266 113.259C272.3 112.863 272.487 112.506 272.793 112.255C273.079 112.021 273.438 111.909 273.801 111.938C274.581 112 275.16 112.695 275.093 113.484C275.059 113.88 274.871 114.237 274.565 114.488C274.31 114.698 273.997 114.81 273.672 114.81ZM273.69 112.262C273.446 112.262 273.209 112.347 273.015 112.506C272.778 112.699 272.632 112.977 272.606 113.285C272.554 113.895 272.993 114.43 273.586 114.478C273.859 114.501 274.128 114.415 274.344 114.239C274.581 114.044 274.726 113.768 274.753 113.459C274.805 112.85 274.365 112.314 273.773 112.266C273.746 112.263 273.718 112.262 273.69 112.262Z" fill="#8C8C8C"/>
<path d="M273.672 114.161C274.111 114.161 274.468 113.79 274.468 113.332C274.468 112.874 274.111 112.503 273.672 112.503C273.232 112.503 272.875 112.874 272.875 113.332C272.875 113.79 273.232 114.161 273.672 114.161Z" fill="#5E5E5E"/>
<path d="M292.797 109.688L307.663 111.007C309.342 111.238 314.013 113.318 313.13 119.498L309.79 135.851C309.79 135.851 312.737 119.402 311.871 116.869C311.027 114.399 309.878 113.005 306.715 112.221C304.872 111.766 292.797 109.688 292.797 109.688Z" fill="#CF83DE"/>
<path d="M248.323 166.099L247.078 142.25L250.606 147.14L252.781 167.648L248.323 166.099Z" fill="#3EB000"/>
<path d="M239.996 179.116L248.398 173.847L252.856 175.395L242.771 182.029L239.996 179.116Z" fill="#3EB000"/>
<path d="M257.689 197.607L258.873 158.975L262.453 164.589L260.445 204.652L257.689 197.607Z" fill="#3EB000"/>
<path d="M247.078 142.25L231.28 150.849L239.996 179.118L248.398 173.849L260.444 204.654L258.873 158.976L248.324 166.099L247.078 142.25Z" fill="#68ED01"/>
<path d="M241.234 176.705L231.282 150.848L239.998 179.116L248.399 173.847L259.371 201.904L249.197 171.379L241.234 176.705Z" fill="#B8FF29"/>
<path d="M291.867 149.588L290.221 153.228L269.016 150.247L270.662 146.608L291.867 149.588ZM278.322 173.78L268.406 157.436L268.727 154.678L274.683 155.516C276.231 155.733 277.582 155.701 278.734 155.418C279.888 155.124 280.816 154.576 281.518 153.773C282.222 152.96 282.669 151.877 282.859 150.525C283.14 148.529 282.76 146.879 281.719 145.576C280.68 144.262 278.917 143.43 276.43 143.08L270.147 142.197L271.775 138.689L276.946 139.415C279.607 139.789 281.727 140.538 283.304 141.661C284.894 142.774 285.991 144.152 286.594 145.794C287.21 147.427 287.383 149.203 287.113 151.123C286.869 152.857 286.263 154.401 285.294 155.756C284.337 157.101 282.963 158.098 281.169 158.747C279.387 159.397 277.133 159.531 274.406 159.147L274.307 159.134L283.464 174.236L283.427 174.498L278.322 173.78ZM292.98 141.669L291.334 145.309L274.663 142.832L276.291 139.323L292.98 141.669Z" fill="#8F529B"/>
<path d="M291.003 148.724L289.357 152.364L268.151 149.383L269.798 145.744L291.003 148.724ZM277.458 172.916L267.541 156.572L267.862 153.814L273.818 154.651C275.367 154.869 276.718 154.836 277.87 154.553C279.023 154.259 279.951 153.711 280.654 152.909C281.357 152.096 281.804 151.013 281.995 149.66C282.275 147.664 281.895 146.015 280.855 144.712C279.816 143.398 278.053 142.566 275.566 142.216L269.283 141.333L270.911 137.824L276.081 138.551C278.743 138.925 280.862 139.674 282.44 140.796C284.03 141.91 285.126 143.287 285.73 144.93C286.346 146.562 286.519 148.339 286.249 150.258C286.005 151.993 285.399 153.537 284.43 154.891C283.473 156.236 282.098 157.233 280.305 157.882C278.523 158.533 276.268 158.666 273.541 158.283L273.443 158.269L282.599 173.372L282.563 173.633L277.458 172.916ZM292.116 140.805L290.47 144.445L273.799 141.968L275.427 138.459L292.116 140.805Z" fill="#F58A42"/>
<path d="M226.862 193.02C226.862 186.497 222.016 185.032 222.016 185.032C226.353 185.032 226.979 178.186 226.979 178.186C226.979 184.148 231.282 185.282 231.282 185.282C227.448 185.282 226.862 193.02 226.862 193.02Z" fill="url(#paint2_linear_11_112)"/>
<path d="M243.276 125.583C243.276 119.059 238.43 117.594 238.43 117.594C242.767 117.594 243.393 110.748 243.393 110.748C243.393 116.71 247.696 117.844 247.696 117.844C243.862 117.844 243.276 125.583 243.276 125.583Z" fill="url(#paint3_linear_11_112)"/>
<path d="M317.054 169.877C317.054 163.354 312.208 161.889 312.208 161.889C316.545 161.889 317.171 155.042 317.171 155.042C317.171 161.005 321.474 162.138 321.474 162.138C317.641 162.138 317.054 169.877 317.054 169.877Z" fill="url(#paint4_linear_11_112)"/>
<path d="M329.615 184.84C329.615 172.374 320.352 169.574 320.352 169.574C328.64 169.574 329.836 156.489 329.836 156.489C329.836 167.884 338.06 170.049 338.06 170.049C330.736 170.049 329.615 184.84 329.615 184.84Z" fill="url(#paint5_linear_11_112)"/>
<path d="M97.0838 369.279C148.664 369.279 190.478 327.465 190.478 275.884C190.478 224.304 148.664 182.49 97.0838 182.49C45.5037 182.49 3.6897 224.304 3.6897 275.884C3.6897 327.465 45.5037 369.279 97.0838 369.279Z" fill="url(#paint6_linear_11_112)"/>
<path d="M96.7976 372.967C83.7308 372.967 71.053 370.408 59.1197 365.36C47.5938 360.485 37.2409 353.506 28.3516 344.615C19.4622 335.725 12.4818 325.374 7.60639 313.849C2.55897 301.914 1.52588e-05 289.238 1.52588e-05 276.169C1.52588e-05 263.101 2.55897 250.425 7.60639 238.491C12.4818 226.964 19.4608 216.612 28.3501 207.723C37.2395 198.834 47.5924 191.853 59.1182 186.978C71.0516 181.931 83.7293 179.372 96.7962 179.372C109.863 179.372 122.541 181.931 134.474 186.978C146 191.853 156.353 198.832 165.242 207.723C174.132 216.614 181.112 226.965 185.986 238.491C191.033 250.425 193.592 263.102 193.592 276.169C193.592 289.236 191.033 301.914 185.986 313.847C181.111 325.374 174.132 335.726 165.242 344.615C156.353 353.505 146 360.485 134.474 365.36C122.542 370.408 109.866 372.967 96.7976 372.967ZM96.7976 179.795C83.7871 179.795 71.1658 182.342 59.2846 187.368C47.8081 192.223 37.5018 199.172 28.6505 208.022C19.7991 216.873 12.8512 227.18 7.99693 238.656C2.97066 250.537 0.422983 263.159 0.422983 276.169C0.422983 289.18 2.97066 301.801 7.99693 313.682C12.8512 325.159 19.8006 335.465 28.6505 344.316C37.5018 353.168 47.8081 360.116 59.2846 364.97C71.1658 369.995 83.7871 372.544 96.7976 372.544C109.808 372.544 122.43 369.996 134.311 364.97C145.787 360.116 156.094 353.166 164.945 344.316C173.796 335.465 180.744 325.159 185.598 313.682C190.623 301.801 193.172 289.18 193.172 276.169C193.172 263.159 190.625 250.537 185.598 238.656C180.744 227.18 173.795 216.873 164.945 208.022C156.094 199.171 145.787 192.223 134.311 187.368C122.43 182.344 109.808 179.795 96.7976 179.795Z" fill="#303361"/>
<path d="M52.5086 314.541V241.053C52.5086 235.726 56.8271 231.408 62.1537 231.408H131.447C136.774 231.408 141.092 235.726 141.092 241.053V314.541C141.092 319.867 136.774 324.186 131.447 324.186H62.1537C56.8271 324.186 52.5086 319.869 52.5086 314.541Z" fill="#F57743"/>
<path d="M52.5086 312.202V237.102C52.5086 232.22 56.4662 228.262 61.3487 228.262H132.254C137.136 228.262 141.094 232.22 141.094 237.102V312.202C141.094 317.084 137.136 321.042 132.254 321.042H61.3487C56.4662 321.042 52.5086 317.084 52.5086 312.202Z" fill="url(#paint7_linear_11_112)"/>
<path d="M58.4626 258.271V234.717C58.4626 234.634 58.5289 234.567 58.6121 234.567H81.0886C81.1718 234.567 81.238 234.634 81.238 234.717V258.271C81.238 258.354 81.1718 258.42 81.0886 258.42H58.6121C58.5289 258.42 58.4626 258.354 58.4626 258.271Z" fill="#EE8041"/>
<path d="M61.4601 255.135V237.494C61.4601 237.411 61.5263 237.345 61.6095 237.345H78.4394C78.5226 237.345 78.5888 237.411 78.5888 237.494V255.135C78.5888 255.218 78.5226 255.284 78.4394 255.284H61.6095C61.5277 255.284 61.4601 255.218 61.4601 255.135Z" fill="#FAC74C"/>
<path d="M65.9435 250.433V242.084C65.9435 242 66.0098 241.934 66.093 241.934H74.0518C74.135 241.934 74.2013 242 74.2013 242.084V250.433C74.2013 250.516 74.135 250.582 74.0518 250.582H66.093C66.0112 250.582 65.9435 250.515 65.9435 250.433Z" fill="#EE8041"/>
<path d="M112.877 314.704V292.202C112.877 292.119 112.944 292.053 113.027 292.053H134.875C134.958 292.053 135.024 292.121 135.024 292.202V314.704C135.024 314.787 134.958 314.854 134.875 314.854H113.027C112.945 314.854 112.877 314.787 112.877 314.704Z" fill="#E3793B"/>
<path d="M115.793 311.707V294.857C115.793 294.774 115.859 294.708 115.943 294.708H132.3C132.383 294.708 132.45 294.774 132.45 294.857V311.707C132.45 311.79 132.383 311.856 132.3 311.856H115.943C115.861 311.856 115.793 311.79 115.793 311.707Z" fill="#F1B343"/>
<path d="M120.153 307.212V299.243C120.153 299.16 120.219 299.094 120.302 299.094H128.032C128.116 299.094 128.182 299.16 128.182 299.243V307.212C128.182 307.295 128.116 307.362 128.032 307.362H120.302C120.22 307.362 120.153 307.294 120.153 307.212Z" fill="#E3793B"/>
<path d="M113.642 256.958V236.029C113.642 235.946 113.708 235.88 113.791 235.88H134.11C134.194 235.88 134.26 235.946 134.26 236.029V256.958C134.26 257.041 134.194 257.107 134.11 257.107H113.791C113.709 257.107 113.642 257.041 113.642 256.958Z" fill="#EE8041"/>
<path d="M116.356 254.168V238.501C116.356 238.418 116.422 238.351 116.505 238.351H131.714C131.797 238.351 131.863 238.418 131.863 238.501V254.168C131.863 254.251 131.797 254.317 131.714 254.317H116.505C116.423 254.317 116.356 254.251 116.356 254.168Z" fill="#FAC84D"/>
<path d="M120.415 249.983V242.585C120.415 242.502 120.481 242.436 120.564 242.436H127.741C127.824 242.436 127.89 242.502 127.89 242.585V249.983C127.89 250.066 127.824 250.133 127.741 250.133H120.564C120.482 250.133 120.415 250.065 120.415 249.983Z" fill="#EE8041"/>
<path d="M73.6345 303.647V288.218C73.6345 288.135 73.7008 288.069 73.7839 288.069H88.7612C88.8444 288.069 88.9107 288.135 88.9107 288.218V303.648C88.9107 303.731 88.8444 303.797 88.7612 303.797H73.7839C73.7008 303.796 73.6345 303.73 73.6345 303.647Z" fill="#E3793B"/>
<path d="M75.645 301.579V290.049C75.645 289.966 75.7113 289.9 75.7945 289.9H86.9848C87.068 289.9 87.1342 289.966 87.1342 290.049V301.579C87.1342 301.663 87.068 301.729 86.9848 301.729H75.7945C75.7113 301.729 75.645 301.661 75.645 301.579Z" fill="#F2B645"/>
<path d="M78.6523 298.478V293.074C78.6523 292.99 78.7186 292.924 78.8018 292.924H84.0409C84.1241 292.924 84.1904 292.99 84.1904 293.074V298.478C84.1904 298.561 84.1241 298.627 84.0409 298.627H78.8018C78.7186 298.627 78.6523 298.561 78.6523 298.478Z" fill="#E3793B"/>
<path d="M108.036 246.494C108.758 246.494 109.344 247.107 109.344 247.864V261.238C109.344 261.991 109.924 262.603 110.643 262.609L117.73 262.664C118.449 262.669 119.029 263.281 119.029 264.034V264.22C119.029 264.98 118.438 265.595 117.712 265.591L108.156 265.53C107.441 265.526 106.861 264.92 106.856 264.171L106.727 247.875C106.722 247.114 107.308 246.494 108.036 246.494Z" fill="#EE8041"/>
<path d="M113.642 285.229C113.642 284.472 114.227 283.859 114.95 283.859H127.719C128.438 283.859 129.022 283.251 129.028 282.498L129.081 275.075C129.087 274.322 129.671 273.714 130.39 273.714H130.567C131.293 273.714 131.88 274.333 131.876 275.093L131.818 285.101C131.814 285.849 131.236 286.457 130.521 286.463L114.963 286.598C114.234 286.606 113.642 285.99 113.642 285.229Z" fill="#EE8041"/>
<path d="M85.5396 238.079V236.589C85.5396 236.197 85.8428 235.88 86.2164 235.88H99.8754C100.249 235.88 100.552 236.197 100.552 236.589V238.079C100.552 238.471 100.249 238.788 99.8754 238.788H96.5072C96.1322 238.788 95.8276 239.109 95.8305 239.502L95.8403 241.443C95.8417 241.842 95.5301 242.164 95.1509 242.157L92.5412 242.106C92.1633 242.099 91.8644 241.769 91.8771 241.373L91.9363 239.523C91.949 239.123 91.6417 238.79 91.2596 238.79H86.2178C85.8428 238.788 85.5396 238.471 85.5396 238.079Z" fill="#EE8041"/>
<path d="M59.7386 280.529V271.108C59.7386 270.7 60.1108 270.37 60.5704 270.37H61.7956C62.2552 270.37 62.6275 270.7 62.6275 271.108V277.513C62.6275 277.923 63.0053 278.254 63.4678 278.25L77.8332 278.125C78.2914 278.121 78.6594 277.791 78.6565 277.385L78.6509 276.176C78.6495 275.767 79.0231 275.435 79.4841 275.436L81.7259 275.44C82.1813 275.442 82.5507 275.766 82.5563 276.171L82.6338 282.6C82.6395 283.021 82.2461 283.361 81.771 283.346L79.5701 283.272C79.1303 283.258 78.7806 282.942 78.7693 282.553L78.751 281.879C78.7397 281.478 78.3675 281.157 77.9135 281.16L60.5761 281.267C60.115 281.27 59.7386 280.939 59.7386 280.529Z" fill="#EE8041"/>
<path d="M132.443 276.812C132.811 276.812 133.109 276.431 133.109 275.96V273.717H131.419L131.377 269.761L129.314 269.727L129.327 272.861C129.328 273.334 129.029 273.717 128.66 273.717H94.8421C94.4741 273.717 94.1752 274.098 94.1752 274.569V275.962C94.1752 276.431 94.4741 276.813 94.8421 276.813H98.1793C98.5445 276.813 98.842 277.19 98.8462 277.657L98.8941 284.081C98.8984 284.549 99.1973 284.926 99.5638 284.925L105.201 284.894L105.226 282.21L101.679 282.108C101.318 282.098 101.029 281.72 101.027 281.259L101.019 277.668C101.017 277.197 101.316 276.813 101.686 276.813H132.443V276.812Z" fill="#EE8041"/>
<path d="M105.577 309.424V304.814C105.577 304.349 105.22 303.968 104.776 303.959L103.354 303.931C102.897 303.923 102.522 304.308 102.522 304.787L102.53 312.577C102.53 313.053 102.159 313.438 101.705 313.432L96.7046 313.377L96.7003 311.392L98.8293 311.415C99.2832 311.419 99.654 311.034 99.654 310.559L99.6456 303.859V301.499C99.6456 301.031 100.005 300.65 100.452 300.645L104.769 300.591C105.216 300.586 105.576 300.205 105.576 299.737V295.021C105.576 294.548 105.941 294.166 106.392 294.166H107.762C108.214 294.166 108.579 294.55 108.579 295.021V309.428C108.579 309.901 108.214 310.283 107.762 310.283H106.392C105.942 310.279 105.577 309.896 105.577 309.424Z" fill="#E3793B"/>
<path d="M80.8546 265.601L80.8475 263.556L87.4289 263.549C87.7024 263.549 87.9238 263.226 87.9238 262.829V256.779C87.9238 256.391 87.7137 256.074 87.4472 256.06L86.3475 255.999C86.081 255.985 85.871 255.666 85.871 255.28V253.59C85.871 253.191 86.0951 252.866 86.3687 252.869L89.7397 252.904C90.0118 252.907 90.2303 253.229 90.2303 253.625V264.925C90.2303 265.324 90.0076 265.647 89.7341 265.646L80.8546 265.601Z" fill="#EE8041"/>
<path d="M66.9883 309.052V298.368C66.9883 297.74 66.5018 297.231 65.9026 297.233L63.3846 297.238L63.3098 295.238L68.1571 295.239C68.7549 295.239 69.2399 295.747 69.2399 296.374V306.776C69.2399 307.398 69.7178 307.904 70.3114 307.911L75.0754 307.965C75.669 307.972 76.1469 308.478 76.1469 309.1C76.1469 309.729 75.6577 310.239 75.0571 310.235L68.0654 310.187C67.469 310.183 66.9883 309.675 66.9883 309.052Z" fill="#E3793B"/>
<path d="M52.5087 302.172V237.001C52.5087 231.463 55.5766 227.428 64.356 228.264H118.509C121.78 228.264 63.8893 227.581 58.0185 233.335C52.0885 239.144 52.5087 305.598 52.5087 302.172Z" fill="#FFE79A"/>
<path d="M45.3168 322.928L45.1913 272.073L45.0461 246.646L44.9658 233.932L44.946 230.754C44.9192 229.695 45.0306 228.536 45.4169 227.498C46.1585 225.397 47.8095 223.631 49.8792 222.764C50.9071 222.325 52.0434 222.121 53.146 222.122L56.3239 222.103L62.6811 222.063L75.3955 221.983L100.823 221.836L126.25 221.774L138.965 221.743C139.472 221.737 140.062 221.742 140.651 221.806C141.233 221.88 141.811 222.004 142.367 222.194C143.481 222.571 144.513 223.184 145.38 223.976C147.125 225.553 148.171 227.889 148.161 230.25L148.039 281.105L147.894 306.533L147.813 319.247L147.794 322.425C147.808 323.485 147.681 324.669 147.277 325.71C146.502 327.825 144.819 329.577 142.738 330.419C141.704 330.845 140.568 331.035 139.469 331.021L136.292 331.001L129.934 330.96L117.22 330.88L91.7925 330.733L66.3651 330.67L53.6507 330.639C51.5316 330.762 49.3505 330.057 47.7968 328.592C46.229 327.158 45.2985 325.053 45.3168 322.928ZM45.3168 322.928C45.3084 325.053 46.2502 327.148 47.8194 328.566C49.3759 330.017 51.5401 330.705 53.6521 330.573L66.3665 330.542L91.794 330.478L117.221 330.332L129.936 330.251L136.293 330.21L139.471 330.191C140.49 330.189 141.481 330.007 142.405 329.615C144.252 328.841 145.728 327.258 146.386 325.384C146.73 324.434 146.828 323.478 146.805 322.423L146.785 319.246L146.705 306.531L146.56 281.104L146.437 230.249C146.454 228.36 145.629 226.497 144.235 225.223C143.543 224.583 142.718 224.088 141.827 223.782C141.381 223.627 140.919 223.525 140.452 223.463C139.99 223.411 139.517 223.401 138.966 223.404L126.252 223.373L100.824 223.311L75.3969 223.164L62.6825 223.084L56.3253 223.044L53.1474 223.025C52.1308 223.013 51.1411 223.18 50.2106 223.56C48.3523 224.31 46.8437 225.88 46.1515 227.766C45.7905 228.719 45.6778 229.7 45.6876 230.756L45.6679 233.934L45.5875 246.649L45.4423 272.076L45.3168 322.928Z" fill="url(#paint8_linear_11_112)"/>
<path d="M34.4564 302.032C34.1096 294.42 28.377 292.453 28.377 292.453C33.4371 292.683 33.8051 284.727 33.8051 284.727C34.1209 291.685 39.2021 293.234 39.2021 293.234C34.7299 293.033 34.4564 302.032 34.4564 302.032Z" fill="url(#paint9_linear_11_112)"/>
<path d="M80.0044 351.27C79.6576 343.658 73.925 341.691 73.925 341.691C78.9851 341.921 79.3531 333.965 79.3531 333.965C79.6689 340.923 84.7501 342.472 84.7501 342.472C80.278 342.271 80.0044 351.27 80.0044 351.27Z" fill="url(#paint10_linear_11_112)"/>
<path d="M74.5918 215.619C74.245 208.006 68.5124 206.04 68.5124 206.04C73.5725 206.27 73.9405 198.313 73.9405 198.313C74.2563 205.271 79.3375 206.821 79.3375 206.821C74.8654 206.619 74.5918 215.619 74.5918 215.619Z" fill="url(#paint11_linear_11_112)"/>
<path d="M148.83 272.457C148.483 264.845 142.75 262.878 142.75 262.878C147.81 263.108 148.178 255.152 148.178 255.152C148.494 262.11 153.575 263.659 153.575 263.659C149.103 263.458 148.83 272.457 148.83 272.457Z" fill="url(#paint12_linear_11_112)"/>
<path d="M166.981 299.197C166.981 284.759 156.254 281.518 156.254 281.518C165.853 281.518 167.239 266.365 167.239 266.365C167.239 279.56 176.761 282.068 176.761 282.068C168.279 282.069 166.981 299.197 166.981 299.197Z" fill="url(#paint13_linear_11_112)"/>
<path d="M93.889 148.481C84.0141 148.481 74.4353 146.527 65.4176 142.673C56.7073 138.951 48.8852 133.623 42.1685 126.837C35.4518 120.052 30.1773 112.149 26.4933 103.35C22.6795 94.2407 20.7452 84.5632 20.7452 74.5882C20.7452 64.6132 22.6795 54.9371 26.4933 45.8264C30.1773 37.0272 35.4503 29.1248 42.1685 22.3389C48.8852 15.5531 56.7073 10.2251 65.4176 6.50302C74.4353 2.6526 84.0141 0.698486 93.889 0.698486C103.764 0.698486 113.343 2.6526 122.36 6.50584C131.071 10.228 138.893 15.5559 145.61 22.3418C152.326 29.1276 157.601 37.03 161.285 45.8292C165.098 54.9385 167.033 64.616 167.033 74.591C167.033 84.566 165.098 94.2421 161.285 103.353C157.601 112.152 152.328 120.054 145.61 126.84C138.893 133.626 131.071 138.954 122.36 142.676C113.343 146.527 103.764 148.481 93.889 148.481ZM93.889 0.980465C84.0536 0.980465 74.5114 2.92612 65.529 6.76526C56.8525 10.4733 49.0615 15.7801 42.3701 22.5406C35.6788 29.301 30.4255 37.1724 26.7555 45.9377C22.9559 55.0132 21.03 64.6527 21.03 74.5896C21.03 84.5265 22.9559 94.1674 26.7555 103.241C30.4255 112.007 35.6788 119.88 42.3701 126.639C49.0615 133.399 56.8539 138.706 65.529 142.414C74.5114 146.252 84.0536 148.199 93.889 148.199C103.724 148.199 113.267 146.253 122.249 142.414C130.925 138.706 138.717 133.399 145.408 126.639C152.099 119.878 157.353 112.007 161.022 103.241C164.822 94.166 166.748 84.5265 166.748 74.5896C166.748 64.6527 164.822 55.0118 161.022 45.9377C157.353 37.1724 152.099 29.2996 145.408 22.5406C138.717 15.7801 130.924 10.4733 122.249 6.76526C113.267 2.92612 103.724 0.980465 93.889 0.980465Z" fill="#289263"/>
<path d="M93.7424 145.234C132.208 145.234 163.391 113.731 163.391 74.8701C163.391 36.0094 132.208 4.50659 93.7424 4.50659C55.2765 4.50659 24.0937 36.0094 24.0937 74.8701C24.0937 113.731 55.2765 145.234 93.7424 145.234Z" fill="url(#paint14_linear_11_112)"/>
<path d="M115.226 53.8642C114.725 77.1317 98.0723 98.5522 89.8089 106.357C132.283 111.56 146.898 70.8506 149.218 51.0698L115.226 53.8642Z" fill="url(#paint15_linear_11_112)"/>
<path d="M80.7461 121.342L79.456 103.635C104.125 112.447 122.982 101.026 129.41 93.8882C114.192 115.743 92.8867 120.89 80.7461 121.342Z" fill="#253D38"/>
<path d="M92.4101 106.632C94.539 105.493 96.5312 104.107 98.3697 102.545C100.208 100.983 101.894 99.2429 103.435 97.3875C106.515 93.6682 109.031 89.5062 111.098 85.1496C113.165 80.7874 114.795 76.2264 116.07 71.5723C117.34 66.9168 118.255 62.1655 118.823 57.3733L118.829 57.3211L118.882 57.3183L144.716 56.2045L144.781 56.2017V56.2665C144.761 58.6083 144.453 60.9403 143.957 63.2243C143.46 65.5098 142.773 67.7501 141.957 69.9411C141.139 72.1306 140.191 74.2709 139.145 76.3603C138.091 78.4455 136.937 80.48 135.704 82.4652C133.232 86.4298 130.449 90.2069 127.333 93.6893C125.774 95.4291 124.138 97.1041 122.38 98.6423C120.619 100.169 118.76 101.624 116.641 102.622C118.755 101.617 120.608 100.155 122.362 98.6211C124.114 97.0773 125.741 95.3967 127.292 93.6526C130.388 90.1575 133.172 86.3875 135.633 82.4214C136.863 80.4377 138.013 78.4032 139.063 76.3194C140.105 74.2314 141.05 72.0926 141.862 69.9058C142.674 67.7191 143.355 65.4816 143.849 63.2018C144.341 60.9234 144.642 58.5985 144.659 56.2665L144.723 56.3285L118.889 57.4438L118.949 57.3888C118.373 62.1852 117.451 66.9422 116.174 71.6005C114.892 76.2574 113.255 80.8226 111.179 85.1862C110.14 87.3673 108.99 89.4963 107.714 91.5477C106.439 93.5991 105.034 95.5715 103.483 97.4241C101.934 99.2767 100.239 101.011 98.3923 102.567C96.5425 104.123 94.5433 105.501 92.4101 106.632Z" fill="#2F7858"/>
<path d="M123.642 81.4882C121.199 79.8879 116.536 84.229 114.259 87.7058C111.981 91.1826 106.532 100.501 110.462 100.53C114.947 100.564 120.835 96.1666 123.113 92.6898C125.39 89.2115 126.085 83.0884 123.642 81.4882Z" fill="#227350"/>
<path d="M130.083 69.1015C130.388 67.4443 129.829 65.9525 128.835 65.7696C127.841 65.5867 126.788 66.7818 126.483 68.439C126.178 70.0963 126.737 71.588 127.731 71.7709C128.725 71.9539 129.778 70.7587 130.083 69.1015Z" fill="#2F7858"/>
<path d="M140.613 51.7773L115.226 53.864C115.226 53.864 115.043 64.5721 110.901 74.447C110.901 74.447 114.72 67.4892 116.965 55.4177L140.613 51.7773Z" fill="#37ED9E"/>
<path d="M104.327 90.916C81.1098 89.3102 60.5028 71.6597 53.0995 63.0354C45.885 105.215 85.8555 121.746 105.504 125.002L104.327 90.916Z" fill="url(#paint16_linear_11_112)"/>
<path d="M38.5634 53.2706L56.3111 52.8223C46.339 77.0442 56.8497 96.4232 63.675 103.182C42.5675 86.9445 38.4379 65.4197 38.5634 53.2706Z" fill="#253D38"/>
<path d="M52.7018 65.6199C53.7395 67.801 55.0282 69.8566 56.5015 71.767C57.9748 73.6788 59.6315 75.4454 61.4121 77.0724C64.9806 80.3251 69.0185 83.0349 73.2722 85.3076C77.5301 87.5804 82.0107 89.4245 86.5985 90.9176C91.1877 92.4078 95.8911 93.547 100.651 94.3422L100.703 94.3507V94.4043L100.589 120.262V120.327L100.524 120.322C98.1864 120.191 95.8713 119.774 93.6127 119.169C91.354 118.564 89.1476 117.772 86.9989 116.853C84.8502 115.932 82.7579 114.884 80.7206 113.74C78.6876 112.586 76.7095 111.338 74.7864 110.012C70.9444 107.354 67.3027 104.396 63.9725 101.118C62.3088 99.4785 60.7143 97.7654 59.2607 95.9354C57.8197 94.1039 56.4536 92.1766 55.5583 90.0124C56.462 92.1724 57.8353 94.0927 59.2832 95.9171C60.7425 97.7401 62.3427 99.446 64.012 101.077C67.3563 104.336 70.991 107.295 74.8343 109.941C76.7574 111.264 78.7341 112.509 80.7672 113.656C82.803 114.797 84.8939 115.84 87.0398 116.757C89.1856 117.672 91.3879 118.458 93.6423 119.059C95.8953 119.658 98.2033 120.071 100.531 120.198L100.466 120.259L100.579 94.4014L100.631 94.4635C95.8671 93.6612 91.1595 92.515 86.5661 91.0163C81.9754 89.5161 77.4934 87.6621 73.2327 85.3823C71.1038 84.2417 69.0312 82.9926 67.0433 81.6193C65.0553 80.2475 63.1505 78.7502 61.3741 77.1133C59.5976 75.4778 57.9466 73.7028 56.4789 71.7839C55.0126 69.8679 53.7311 67.8052 52.7018 65.6199Z" fill="#2F7858"/>
<path d="M76.3344 98.0108C78.0489 95.6464 73.9334 90.7837 70.5694 88.3431C67.2054 85.9026 58.1567 80.0163 57.9396 83.9414C57.6928 88.4207 61.8069 94.5086 65.1709 96.9491C68.5363 99.3911 74.62 100.375 76.3344 98.0108Z" fill="#227350"/>
<path d="M91.7839 103.943C92.0138 102.959 90.87 101.85 89.2291 101.467C87.5883 101.084 86.0717 101.571 85.8417 102.555C85.6118 103.539 86.7556 104.648 88.3965 105.031C90.0373 105.415 91.5539 104.928 91.7839 103.943Z" fill="#2F7858"/>
<path d="M105.206 116.373L104.326 90.9161C104.326 90.9161 93.6395 90.2253 83.9719 85.6191C83.9719 85.6191 90.7408 89.7642 102.692 92.5798L105.206 116.373Z" fill="#37ED9E"/>
<path d="M76.3274 124.967L59.9177 43.2591C59.6315 41.8365 59.8176 40.4365 60.3547 39.2268L62.5485 35.6626C62.5485 35.6626 64.5661 35.5907 65.4303 35.5159L98.1427 32.699C101.165 32.4381 103.918 34.5262 104.625 37.6153L122.874 117.321C123.077 118.21 123.528 120.014 123.528 120.014L121.964 122.467C121.018 123.911 119.514 124.954 117.706 125.206L83.1555 130.024C79.9663 130.469 76.9886 128.264 76.3274 124.967Z" fill="#44224A"/>
<path d="M78.0037 122.348L61.594 40.6409C60.8326 36.8483 63.4184 33.215 67.1067 32.8978L99.8204 30.0808C102.843 29.82 105.595 31.908 106.303 34.9971L124.551 114.703C125.402 118.415 122.998 122.083 119.384 122.587L84.8319 127.406C81.6427 127.851 78.6664 125.646 78.0037 122.348Z" fill="#8F529B"/>
<path d="M78.7002 120.126L63.0885 42.0634C62.3638 38.44 64.8184 34.9702 68.3192 34.6685L99.3763 31.9925C102.247 31.7458 104.861 33.7408 105.533 36.6917L122.89 112.844C123.698 116.392 121.419 119.894 117.988 120.374L85.1857 124.961C82.1587 125.384 79.3304 123.276 78.7002 120.126Z" fill="url(#paint17_linear_11_112)"/>
<path d="M84.9249 125.137C85.2154 125.137 85.5072 125.116 85.8005 125.075L117.226 120.628C119.042 120.372 120.638 119.368 121.722 117.8C122.893 116.105 123.302 113.955 122.841 111.901L106.086 37.109C105.309 33.6392 102.313 31.3397 98.9999 31.6203L69.2441 34.1933C67.3929 34.3527 65.7349 35.2888 64.5759 36.8298C63.3183 38.5006 62.8347 40.6647 63.2478 42.7669L78.3323 119.43C78.9907 122.774 81.795 125.137 84.9249 125.137ZM99.5512 33.8211C101.611 33.8211 103.414 35.3565 103.916 37.5954L120.67 112.386C120.994 113.835 120.709 115.348 119.89 116.535C119.164 117.586 118.107 118.258 116.914 118.426L85.4889 122.873C83.1823 123.2 81.004 121.495 80.5148 119.001V119L65.4303 42.3369C65.1385 40.8551 65.4754 39.3338 66.3524 38.1664C67.1264 37.1386 68.2219 36.514 69.4358 36.4083L99.1916 33.8352C99.3101 33.8268 99.4313 33.8211 99.5512 33.8211Z" fill="#474747"/>
<path d="M70.63 38.0678L70.5059 36.5747C70.5031 36.5437 70.5243 36.5183 70.5539 36.5155L92.1309 34.5586C92.1605 34.5558 92.1859 34.5783 92.1873 34.6093L92.3113 36.1024C92.3142 36.1334 92.293 36.1588 92.2634 36.1616L70.6864 38.1172C70.6582 38.12 70.6328 38.0974 70.63 38.0678Z" fill="#5E5E5E"/>
<path d="M95.2087 36.8101C95.251 36.8101 95.2947 36.8087 95.3384 36.8044C96.2281 36.7311 96.8893 35.919 96.8132 34.997C96.7384 34.0749 95.9686 33.3629 95.0635 33.4559C94.1738 33.5293 93.5126 34.3414 93.5887 35.2634C93.6254 35.723 93.8355 36.1361 94.1795 36.428C94.4713 36.6761 94.8337 36.8101 95.2087 36.8101ZM95.1918 34.5613C95.454 34.5613 95.6796 34.7897 95.705 35.0872C95.7304 35.4002 95.5245 35.6723 95.2454 35.6963C95.1255 35.7075 94.9986 35.6638 94.8985 35.5792C94.7815 35.4791 94.7082 35.3353 94.6955 35.1732V35.1718C94.6701 34.8588 94.876 34.5867 95.1551 34.5627C95.1664 34.5613 95.1791 34.5613 95.1918 34.5613Z" fill="#8C8C8C"/>
<path d="M95.2073 35.8275C95.581 35.8275 95.884 35.4999 95.884 35.0957C95.884 34.6916 95.581 34.364 95.2073 34.364C94.8335 34.364 94.5305 34.6916 94.5305 35.0957C94.5305 35.4999 94.8335 35.8275 95.2073 35.8275Z" fill="#5E5E5E"/>
<path opacity="0.1686" d="M70.7456 79.3717L108.057 47.2036L112.429 66.3866L75.3517 101.922L70.7456 79.3717Z" fill="#D9D9D9"/>
<path opacity="0.1686" d="M76.4134 107.229L113.818 72.4775L115.548 80.0698L77.6541 113.429L76.4134 107.229Z" fill="#D9D9D9"/>
<path d="M78.9315 31.8799L66.2805 33.043C64.8523 33.2475 60.8764 35.0818 61.6278 40.5338L64.4702 54.9612C64.4702 54.9612 61.962 40.4492 62.6994 38.2159C63.4184 36.0362 64.3955 34.8068 67.0884 34.116C68.6533 33.7142 78.9315 31.8799 78.9315 31.8799Z" fill="#CF83DE"/>
<path d="M105.263 71.3371L103.323 60.9617L95.1833 62.6592L102.702 61.9585L105.263 71.3371Z" fill="url(#paint18_linear_11_112)"/>
<path d="M80.4358 76.0658L78.2039 65.7496L86.3658 64.1606L79.1627 66.4278L80.4358 76.0658Z" fill="url(#paint19_linear_11_112)"/>
<path d="M81.3705 83.2944L83.2034 93.6896L91.3596 92.0767L83.8336 92.6984L81.3705 83.2944Z" fill="url(#paint20_linear_11_112)"/>
<path d="M106.42 77.9985L108.6 88.326L100.431 89.8727L107.645 87.6422L106.42 77.9985Z" fill="url(#paint21_linear_11_112)"/>
<path d="M95.4343 70.9463C94.7308 69.2488 92.6695 68.4903 90.8282 69.253C88.9883 70.0158 88.0662 72.0094 88.7697 73.7069C89.4733 75.4044 91.5345 76.1629 93.3758 75.4002C95.2158 74.6374 96.1378 72.6438 95.4343 70.9463Z" fill="url(#paint22_linear_11_112)"/>
<path d="M100.558 83.0615C101.721 82.8077 102.326 81.5008 101.744 80.4631C100.101 77.5362 96.5975 75.912 93.0121 76.693C89.4394 77.4727 86.8861 80.4025 86.5266 83.7467C86.3983 84.9451 87.505 85.9081 88.6823 85.6515L100.558 83.0615Z" fill="url(#paint23_linear_11_112)"/>
<path d="M50.4587 39.0801L53.3236 40.7832L52.8061 45.5036L49.3322 42.4258L50.4587 39.0801Z" fill="url(#paint24_linear_11_112)"/>
<path d="M128.529 99.1331L129.362 102.837L128.23 106.892L127.188 102.262L128.529 99.1331Z" fill="url(#paint25_linear_11_112)"/>
<path d="M136.947 78.1243L140.83 83.1012L139.457 88.0372L134.607 81.8154L136.947 78.1243Z" fill="url(#paint26_linear_11_112)"/>
<path d="M53.9848 105.268L61.1978 110.666L65.584 120.016L56.5692 113.269L53.9848 105.268Z" fill="url(#paint27_linear_11_112)"/>
<path d="M115.393 48.8462L116 44.9154L118.475 42.1619L117.713 47.0768L115.393 48.8462Z" fill="url(#paint28_linear_11_112)"/>
<path d="M279.48 446.698C269.051 446.698 258.935 444.634 249.412 440.565C240.213 436.635 231.951 431.008 224.857 423.841C217.762 416.675 212.193 408.328 208.302 399.036C204.274 389.414 202.231 379.196 202.231 368.659C202.231 358.123 204.274 347.904 208.302 338.283C212.192 328.991 217.762 320.645 224.857 313.478C231.951 306.311 240.212 300.684 249.412 296.753C258.935 292.684 269.051 290.62 279.48 290.62C289.909 290.62 300.025 292.684 309.549 296.753C318.747 300.684 327.009 306.311 334.102 313.478C341.197 320.644 346.766 328.991 350.657 338.283C354.685 347.904 356.728 358.123 356.728 368.659C356.728 379.196 354.685 389.414 350.657 399.036C346.767 408.328 341.197 416.673 334.102 423.841C327.008 431.008 318.747 436.635 309.549 440.565C300.025 444.636 289.909 446.698 279.48 446.698ZM279.48 290.905C269.091 290.905 259.011 292.961 249.523 297.016C240.359 300.932 232.128 306.538 225.058 313.679C217.991 320.82 212.44 329.136 208.564 338.395C204.55 347.98 202.516 358.164 202.516 368.661C202.516 379.157 204.55 389.341 208.564 398.927C212.441 408.186 217.991 416.501 225.058 423.642C232.126 430.783 240.357 436.389 249.523 440.306C259.011 444.361 269.091 446.416 279.48 446.416C289.87 446.416 299.949 444.361 309.438 440.306C318.602 436.389 326.833 430.783 333.902 423.642C340.971 416.501 346.521 408.186 350.397 398.927C354.41 389.341 356.445 379.157 356.445 368.661C356.445 358.164 354.41 347.98 350.397 338.395C346.519 329.136 340.97 320.82 333.902 313.679C326.834 306.538 318.603 300.932 309.438 297.016C299.951 292.961 289.871 290.905 279.48 290.905Z" fill="#289263"/>
<path d="M279.327 443.277C319.956 443.277 352.892 410.003 352.892 368.957C352.892 327.911 319.956 294.637 279.327 294.637C238.698 294.637 205.761 327.911 205.761 368.957C205.761 410.003 238.698 443.277 279.327 443.277Z" fill="url(#paint29_linear_11_112)"/>
<path d="M277.585 411.058V386.031C302.59 393.465 311.963 397.067 311.963 397.067L311.417 413.813L277.585 411.058Z" fill="#185E40"/>
<path d="M244.308 416.964L243.933 395.628C243.933 395.628 261.059 389.172 277.585 386.031L277.611 411.921L244.308 416.964Z" fill="#227350"/>
<path d="M245.935 435.197C243.599 423.858 243.933 395.626 243.933 395.626L277.585 408.141L277.611 443.255C261.376 443.255 245.935 435.197 245.935 435.197Z" fill="url(#paint30_linear_11_112)"/>
<path d="M277.611 443.256L277.585 408.141L311.963 397.066C311.963 397.066 310.839 429.865 310.42 436.329C310.419 436.329 298.173 443.256 277.611 443.256Z" fill="url(#paint31_linear_11_112)"/>
<path d="M244.139 411.973C244.139 411.973 266.323 420.386 267.476 420.386C268.63 420.386 277.585 408.141 277.585 408.141C277.585 408.141 269.983 422.802 268.458 424.085C266.932 425.367 244.251 415.364 244.229 414.843C244.154 413.218 244.139 411.973 244.139 411.973Z" fill="#227350"/>
<path d="M311.498 411.973C311.498 411.973 289.313 420.386 288.16 420.386C287.006 420.386 278.051 408.141 278.051 408.141C278.051 408.141 285.653 422.802 287.178 424.085C288.704 425.367 311.385 415.364 311.407 414.843C311.482 413.218 311.498 411.973 311.498 411.973Z" fill="#227350"/>
<path d="M311.963 397.066L277.585 386.029C277.585 386.029 288.553 383.757 290.414 383.871C292.275 383.986 324.611 392.836 325.601 393.744C326.59 394.654 311.963 397.066 311.963 397.066Z" fill="url(#paint32_linear_11_112)"/>
<path d="M277.585 408.141L311.963 397.066C311.963 397.066 322.347 404.564 323.046 406.752C323.745 408.939 291.267 420.845 288.435 420.597C285.602 420.349 277.585 408.141 277.585 408.141Z" fill="url(#paint33_linear_11_112)"/>
<path d="M243.933 395.628L277.585 408.142C274.838 413.504 267.712 421.272 267.712 421.272C256.688 418.484 234.175 407.209 234.175 407.209C237.719 400.77 243.933 395.628 243.933 395.628Z" fill="url(#paint34_linear_11_112)"/>
<path d="M243.933 395.628L277.585 386.031C277.585 386.031 261.855 385.98 260.359 386.352C258.863 386.724 228.789 395.965 228.17 396.407C227.551 396.85 243.933 395.628 243.933 395.628Z" fill="url(#paint35_linear_11_112)"/>
<path opacity="0.702" d="M244.139 395.704L230.777 326.949L331.256 327.544L311.963 397.066L277.783 408.411L244.139 395.704Z" fill="url(#paint36_linear_11_112)"/>
<path d="M255.041 377.481C251.773 371.117 239.093 347.195 239.093 347.195C240.498 346.365 261.404 338.381 263.007 338.117C263.007 338.117 268.451 364.32 270.092 372.211C270.092 372.211 269.157 374.86 263.678 376.903C258.787 378.725 255.041 377.481 255.041 377.481Z" fill="url(#paint37_linear_11_112)"/>
<path opacity="0.4588" d="M239.671 348.307C239.551 347.963 238.756 346.721 238.756 346.721C240.213 345.185 245.663 343.04 250.494 341.282C255.084 339.613 260.722 337.619 262.916 337.747C262.916 337.747 263.2 339.06 263.338 339.455C263.821 340.828 258.682 343.911 252.238 346.256C245.795 348.601 240.151 349.681 239.671 348.307Z" fill="#232D67"/>
<path d="M237.2 347.15C237.081 346.806 236.952 345.649 236.952 345.649C238.644 344.027 244.311 341.759 249.781 339.769C254.975 337.88 260.919 336.005 263.364 336.042C263.364 336.042 264.021 336.859 264.159 337.254C264.641 338.627 258.818 342.09 251.525 344.743C244.23 347.397 237.681 348.525 237.2 347.15Z" fill="url(#paint38_linear_11_112)"/>
<path d="M236.951 345.65C236.469 344.277 241.991 341.013 249.285 338.359C256.578 335.706 262.882 334.67 263.362 336.043C263.845 337.416 258.322 340.68 251.029 343.334C243.735 345.987 237.433 347.023 236.951 345.65Z" fill="url(#paint39_linear_11_112)"/>
<path d="M237.838 344.673C237.622 344.058 236.999 341.223 236.999 341.223C238.995 340.043 245.964 339.298 249.225 338.113C252.487 336.927 258.343 333.006 260.622 332.631C260.622 332.631 262.012 335.277 262.227 335.892C262.657 337.12 257.31 340.19 250.786 342.562C244.263 344.935 238.268 345.901 237.838 344.673Z" fill="url(#paint40_linear_11_112)"/>
<path d="M236.997 341.223C236.567 339.995 241.506 337.075 248.028 334.702C254.551 332.329 260.189 331.402 260.62 332.631C261.052 333.859 256.111 336.779 249.589 339.152C243.066 341.523 237.429 342.451 236.997 341.223Z" fill="url(#paint41_linear_11_112)"/>
<path d="M239.83 340.08C239.504 339.149 243.245 336.937 248.186 335.139C253.128 333.342 257.399 332.64 257.724 333.57C258.05 334.501 254.309 336.713 249.368 338.51C244.426 340.308 240.156 341.01 239.83 340.08Z" fill="url(#paint42_linear_11_112)"/>
<path d="M240.18 340.35C239.922 339.614 243.618 337.597 248.437 335.844C253.256 334.092 257.372 333.267 257.63 334.003C257.888 334.739 254.226 336.868 249.407 338.622C244.588 340.374 240.438 341.086 240.18 340.35Z" fill="url(#paint43_linear_11_112)"/>
<path d="M244.608 338.871L240.363 332.559L241.379 331.372L246.105 338.32L244.608 338.871Z" fill="url(#paint44_linear_11_112)"/>
<path d="M240.631 332.69L232.999 329.866L233.578 328.525L241.379 331.372L240.631 332.69Z" fill="url(#paint45_linear_11_112)"/>
<path d="M245.405 338.763C245.823 338.611 246.135 338.418 246.103 338.331C246.071 338.244 245.708 338.296 245.291 338.448C244.874 338.6 244.561 338.794 244.593 338.881C244.625 338.968 244.988 338.915 245.405 338.763Z" fill="#424987"/>
<path d="M233.458 329.269C233.613 328.919 233.677 328.609 233.601 328.575C233.525 328.542 233.339 328.799 233.185 329.148C233.03 329.498 232.967 329.809 233.042 329.842C233.118 329.875 233.304 329.619 233.458 329.269Z" fill="#424886"/>
<path d="M317.109 369.831C317.044 370.508 316.951 371.183 316.799 371.849C316.641 372.511 316.432 373.163 316.152 373.784C315.871 374.406 315.516 374.995 315.086 375.526C314.656 376.057 314.152 376.527 313.6 376.924C312.49 377.724 311.201 378.228 309.892 378.578C308.578 378.928 307.234 379.132 305.892 379.315C304.548 379.497 303.202 379.652 301.869 379.896C300.541 380.143 299.212 380.473 298.011 381.102C297.414 381.416 296.849 381.802 296.375 382.287C295.9 382.768 295.509 383.332 295.222 383.944C294.933 384.556 294.742 385.213 294.627 385.878C294.51 386.545 294.463 387.223 294.456 387.902C294.46 387.225 294.504 386.545 294.617 385.877C294.731 385.209 294.917 384.552 295.205 383.936C295.491 383.321 295.88 382.753 296.355 382.268C296.828 381.778 297.394 381.389 297.994 381.071C299.198 380.433 300.531 380.096 301.86 379.844C303.193 379.594 304.54 379.434 305.882 379.246C307.223 379.057 308.564 378.849 309.869 378.495C311.17 378.141 312.446 377.633 313.538 376.841C314.082 376.446 314.577 375.981 314.997 375.456C315.418 374.932 315.765 374.35 316.039 373.736C316.314 373.122 316.517 372.477 316.67 371.822C316.819 371.163 316.906 370.494 316.968 369.823L317.109 369.831Z" fill="#FDAB5B"/>
<path d="M298.739 332.147C299.389 331.225 301.31 330.02 303.293 330.276C306.712 330.719 310.559 332.51 314.159 339.353C318.589 347.772 315.678 353.248 315.678 353.248L320.895 355.069C320.895 355.069 322.513 347.164 322.049 344.392C321.585 341.62 320.883 335.028 319.451 333.085C318.018 331.142 314.644 326.921 311.792 326.302C308.939 325.683 303.37 324.926 301.703 326.702C299.45 329.107 298.739 332.147 298.739 332.147Z" fill="url(#paint46_linear_11_112)"/>
<path d="M292.131 337.794C292.451 336.072 292.564 332.309 295.258 329.347C297.59 326.783 301.64 325.447 304.272 324.881C306.904 324.314 300.725 327.182 299.803 328.824C298.88 330.467 297.062 338.864 297.062 338.864L292.131 337.794Z" fill="url(#paint47_linear_11_112)"/>
<path d="M296.966 338.139C296.966 338.139 296.718 335.472 298.487 330.736C299.013 329.326 301.544 322.913 309.725 324.951C317.907 326.99 321.224 335.583 322.02 338.703C323.974 346.363 321.607 355.196 321.607 355.196L320.466 354.312C320.466 354.312 323.283 345.196 320.741 337.808C318.778 332.104 316.15 327.372 309.459 326.05C306.594 325.483 301.422 325.608 299.399 330.825C297.858 334.797 297.889 338.592 297.889 338.592L296.966 338.139Z" fill="url(#paint48_linear_11_112)"/>
<path d="M312.427 359.321C315.151 356.311 317.86 353.6 320.754 354.38C320.754 354.38 323.174 356.201 323.714 356.616C326.596 358.827 326.217 363.62 322.864 367.325C319.513 371.029 314.458 372.242 311.577 370.031C310.676 369.34 308.809 367.896 308.809 367.896C308.211 365.512 310.123 361.868 312.427 359.321Z" fill="#BA5D8F"/>
<path d="M311.981 359.031C314.705 356.021 317.415 353.31 320.308 354.09C320.308 354.09 322.729 355.911 323.269 356.326C326.151 358.536 325.771 363.33 322.419 367.035C319.067 370.739 314.013 371.951 311.131 369.741C310.23 369.05 308.363 367.606 308.363 367.606C307.766 365.222 309.677 361.577 311.981 359.031Z" fill="url(#paint49_linear_11_112)"/>
<path d="M290.968 344.382C294.319 340.678 299.374 339.466 302.256 341.677C305.138 343.887 304.758 348.681 301.406 352.386C298.054 356.09 293 357.303 290.118 355.092C287.236 352.881 287.617 348.086 290.968 344.382Z" fill="url(#paint50_linear_11_112)"/>
<path d="M308.239 356.201C311.591 352.498 316.765 351.377 319.795 353.7C322.825 356.024 322.564 360.91 319.213 364.614C315.861 368.318 310.687 369.439 307.657 367.115C304.627 364.792 304.888 359.905 308.239 356.201Z" fill="url(#paint51_linear_11_112)"/>
<path d="M315.336 362.552C317.328 360.633 317.894 357.987 316.599 356.643C315.305 355.299 312.64 355.765 310.647 357.684C308.655 359.603 308.089 362.249 309.384 363.593C310.679 364.937 313.343 364.471 315.336 362.552Z" fill="#683573"/>
<path d="M311.23 358.808C313.039 356.809 315.5 355.952 316.73 356.894C317.958 357.836 317.487 360.22 315.678 362.219C313.869 364.218 311.407 365.075 310.178 364.134C308.95 363.192 309.421 360.808 311.23 358.808Z" fill="url(#paint52_linear_11_112)"/>
<path d="M289.419 343.194C292.143 340.184 294.852 337.472 297.745 338.252C297.745 338.252 300.166 340.074 300.706 340.488C303.588 342.699 303.209 347.493 299.856 351.198C296.505 354.902 291.45 356.114 288.568 353.903C287.668 353.213 285.801 351.769 285.801 351.769C285.202 349.385 287.113 345.74 289.419 343.194Z" fill="url(#paint53_linear_11_112)"/>
<path d="M286.884 341.249C290.235 337.546 295.289 336.333 298.171 338.544C301.053 340.755 300.674 345.548 297.321 349.253C293.97 352.957 288.915 354.17 286.033 351.959C283.152 349.748 283.532 344.955 286.884 341.249Z" fill="url(#paint54_linear_11_112)"/>
<path d="M286.066 340.623C289.417 336.92 294.472 335.707 297.354 337.918C300.235 340.129 299.856 344.922 296.503 348.627C293.152 352.331 288.098 353.544 285.216 351.333C282.334 349.122 282.715 344.327 286.066 340.623Z" fill="url(#paint55_linear_11_112)"/>
<path d="M279.437 318.13L282.302 319.834L281.784 324.554L278.31 321.476L279.437 318.13Z" fill="url(#paint56_linear_11_112)"/>
<path d="M333.344 342.328L332.192 345.946L329.168 348.874L330.607 344.352L333.344 342.328Z" fill="url(#paint57_linear_11_112)"/>
<path d="M264.203 306.709L263.051 310.327L260.027 313.255L261.466 308.732L264.203 306.709Z" fill="url(#paint58_linear_11_112)"/>
<path d="M275.599 379.188L279.482 384.165L278.108 389.101L273.258 382.88L275.599 379.188Z" fill="url(#paint59_linear_11_112)"/>
<path d="M233.774 360.938L238.63 362.77L242.555 367.243L236.486 364.951L233.774 360.938Z" fill="url(#paint60_linear_11_112)"/>
<path d="M286.392 373.629L286.999 369.699L289.474 366.945L288.712 371.86L286.392 373.629Z" fill="url(#paint61_linear_11_112)"/>
</g>
<defs>
<linearGradient id="paint0_linear_11_112" x1="265.001" y1="244.185" x2="286.713" y2="83.513" gradientUnits="userSpaceOnUse">
<stop stop-color="#2E327D"/>
<stop offset="1" stop-color="#1F1F1F" stop-opacity="0"/>
</linearGradient>
<linearGradient id="paint1_linear_11_112" x1="264.083" y1="209.363" x2="290.502" y2="115.609" gradientUnits="userSpaceOnUse">
<stop stop-color="#FDB047"/>
<stop offset="1" stop-color="#FFD43B"/>
</linearGradient>
<linearGradient id="paint2_linear_11_112" x1="228.117" y1="190.936" x2="226.741" y2="180.132" gradientUnits="userSpaceOnUse">
<stop stop-color="#656AAA"/>
<stop offset="1" stop-color="#CF83DE"/>
</linearGradient>
<linearGradient id="paint3_linear_11_112" x1="244.532" y1="123.499" x2="243.156" y2="112.695" gradientUnits="userSpaceOnUse">
<stop stop-color="#656AAA"/>
<stop offset="1" stop-color="#CF83DE"/>
</linearGradient>
<linearGradient id="paint4_linear_11_112" x1="318.307" y1="167.79" x2="316.931" y2="156.986" gradientUnits="userSpaceOnUse">
<stop stop-color="#656AAA"/>
<stop offset="1" stop-color="#CF83DE"/>
</linearGradient>
<linearGradient id="paint5_linear_11_112" x1="332.025" y1="180.874" x2="329.395" y2="160.226" gradientUnits="userSpaceOnUse">
<stop stop-color="#656AAA"/>
<stop offset="1" stop-color="#CF83DE"/>
</linearGradient>
<linearGradient id="paint6_linear_11_112" x1="84.6429" y1="367.952" x2="109.807" y2="181.741" gradientUnits="userSpaceOnUse">
<stop stop-color="#2E327D"/>
<stop offset="0.039" stop-color="#2D3178" stop-opacity="0.961"/>
<stop offset="0.4769" stop-color="#262748" stop-opacity="0.5231"/>
<stop offset="0.8111" stop-color="#21212A" stop-opacity="0.1889"/>
<stop offset="1" stop-color="#1F1F1F" stop-opacity="0"/>
</linearGradient>
<linearGradient id="paint7_linear_11_112" x1="96.8009" y1="230.34" x2="96.8009" y2="336.866" gradientUnits="userSpaceOnUse">
<stop stop-color="#FCCB4E"/>
<stop offset="1" stop-color="#EDAB40"/>
</linearGradient>
<linearGradient id="paint8_linear_11_112" x1="49.8325" y1="330.151" x2="140.333" y2="225.923" gradientUnits="userSpaceOnUse">
<stop stop-color="#1F1E1F" stop-opacity="0"/>
<stop offset="1" stop-color="#A665AB"/>
</linearGradient>
<linearGradient id="paint9_linear_11_112" x1="35.7861" y1="299.706" x2="34.7347" y2="286.934" gradientUnits="userSpaceOnUse">
<stop stop-color="#656AAA"/>
<stop offset="1" stop-color="#CF83DE"/>
</linearGradient>
<linearGradient id="paint10_linear_11_112" x1="81.3306" y1="348.941" x2="80.2792" y2="336.169" gradientUnits="userSpaceOnUse">
<stop stop-color="#656AAA"/>
<stop offset="1" stop-color="#CF83DE"/>
</linearGradient>
<linearGradient id="paint11_linear_11_112" x1="75.9164" y1="213.301" x2="74.8651" y2="200.528" gradientUnits="userSpaceOnUse">
<stop stop-color="#656AAA"/>
<stop offset="1" stop-color="#CF83DE"/>
</linearGradient>
<linearGradient id="paint12_linear_11_112" x1="150.15" y1="270.135" x2="149.098" y2="257.362" gradientUnits="userSpaceOnUse">
<stop stop-color="#656AAA"/>
<stop offset="1" stop-color="#CF83DE"/>
</linearGradient>
<linearGradient id="paint13_linear_11_112" x1="169.775" y1="294.611" x2="166.729" y2="270.699" gradientUnits="userSpaceOnUse">
<stop stop-color="#656AAA"/>
<stop offset="1" stop-color="#CF83DE"/>
</linearGradient>
<linearGradient id="paint14_linear_11_112" x1="100.911" y1="8.7352" x2="85.9055" y2="147.175" gradientUnits="userSpaceOnUse">
<stop stop-color="#121212" stop-opacity="0"/>
<stop offset="0.1036" stop-color="#15221C" stop-opacity="0.1036"/>
<stop offset="0.721" stop-color="#247D56" stop-opacity="0.721"/>
<stop offset="1" stop-color="#2AA16D"/>
</linearGradient>
<linearGradient id="paint15_linear_11_112" x1="126.05" y1="52.3023" x2="104.222" y2="144.412" gradientUnits="userSpaceOnUse">
<stop stop-color="#00C26E"/>
<stop offset="1" stop-color="#136341"/>
</linearGradient>
<linearGradient id="paint16_linear_11_112" x1="105.351" y1="101.755" x2="14.382" y2="75.5813" gradientUnits="userSpaceOnUse">
<stop stop-color="#00C26E"/>
<stop offset="1" stop-color="#136341"/>
</linearGradient>
<linearGradient id="paint17_linear_11_112" x1="103.714" y1="119.584" x2="80.5301" y2="37.3107" gradientUnits="userSpaceOnUse">
<stop stop-color="#303030"/>
<stop offset="1" stop-color="#454343"/>
</linearGradient>
<linearGradient id="paint18_linear_11_112" x1="102.267" y1="71.7861" x2="99.1156" y2="61.356" gradientUnits="userSpaceOnUse">
<stop stop-color="#864C33"/>
<stop offset="0.1544" stop-color="#8C5034"/>
<stop offset="0.3609" stop-color="#9D5C37"/>
<stop offset="0.5971" stop-color="#B9703C"/>
<stop offset="0.8533" stop-color="#DF8C43"/>
<stop offset="1" stop-color="#F99E48"/>
</linearGradient>
<linearGradient id="paint19_linear_11_112" x1="83.4716" y1="75.3499" x2="82.3352" y2="64.5133" gradientUnits="userSpaceOnUse">
<stop stop-color="#864C33"/>
<stop offset="0.1544" stop-color="#8C5034"/>
<stop offset="0.3609" stop-color="#9D5C37"/>
<stop offset="0.5971" stop-color="#B9703C"/>
<stop offset="0.8533" stop-color="#DF8C43"/>
<stop offset="1" stop-color="#F99E48"/>
</linearGradient>
<linearGradient id="paint20_linear_11_112" x1="84.1683" y1="82.8148" x2="87.2109" y2="93.2766" gradientUnits="userSpaceOnUse">
<stop stop-color="#864C33"/>
<stop offset="0.1544" stop-color="#8C5034"/>
<stop offset="0.3609" stop-color="#9D5C37"/>
<stop offset="0.5971" stop-color="#B9703C"/>
<stop offset="0.8533" stop-color="#DF8C43"/>
<stop offset="1" stop-color="#F99E48"/>
</linearGradient>
<linearGradient id="paint21_linear_11_112" x1="103.457" y1="78.752" x2="104.539" y2="89.5936" gradientUnits="userSpaceOnUse">
<stop stop-color="#864C33"/>
<stop offset="0.1544" stop-color="#8C5034"/>
<stop offset="0.3609" stop-color="#9D5C37"/>
<stop offset="0.5971" stop-color="#B9703C"/>
<stop offset="0.8533" stop-color="#DF8C43"/>
<stop offset="1" stop-color="#F99E48"/>
</linearGradient>
<linearGradient id="paint22_linear_11_112" x1="93.3206" y1="75.6418" x2="90.9429" y2="69.1713" gradientUnits="userSpaceOnUse">
<stop stop-color="#F99F41"/>
<stop offset="1" stop-color="#FAAB13"/>
</linearGradient>
<linearGradient id="paint23_linear_11_112" x1="94.7992" y1="84.4692" x2="92.4658" y2="76.7454" gradientUnits="userSpaceOnUse">
<stop stop-color="#F77A32"/>
<stop offset="1" stop-color="#F99E48"/>
</linearGradient>
<linearGradient id="paint24_linear_11_112" x1="50.456" y1="38.5268" x2="53.5053" y2="45.5599" gradientUnits="userSpaceOnUse">
<stop stop-color="#F6B64E"/>
<stop offset="1" stop-color="#F6864D"/>
</linearGradient>
<linearGradient id="paint25_linear_11_112" x1="128.483" y1="99.0982" x2="128.948" y2="106.89" gradientUnits="userSpaceOnUse">
<stop stop-color="#F6B64E"/>
<stop offset="0.5971" stop-color="#F69B4D"/>
<stop offset="1" stop-color="#F6864D"/>
</linearGradient>
<linearGradient id="paint26_linear_11_112" x1="136.569" y1="78.4598" x2="140.817" y2="87.6125" gradientUnits="userSpaceOnUse">
<stop stop-color="#F6B64E"/>
<stop offset="0.2902" stop-color="#F6AD4E"/>
<stop offset="0.7625" stop-color="#F6954D"/>
<stop offset="1" stop-color="#F6864D"/>
</linearGradient>
<linearGradient id="paint27_linear_11_112" x1="54.7425" y1="106.582" x2="66.6682" y2="118.785" gradientUnits="userSpaceOnUse">
<stop stop-color="#F6B64E"/>
<stop offset="1" stop-color="#F6864D"/>
</linearGradient>
<linearGradient id="paint28_linear_11_112" x1="118.631" y1="42.5009" x2="114.511" y2="48.2971" gradientUnits="userSpaceOnUse">
<stop stop-color="#F6B64E"/>
<stop offset="1" stop-color="#F6864D"/>
</linearGradient>
<linearGradient id="paint29_linear_11_112" x1="286.897" y1="299.104" x2="271.048" y2="445.327" gradientUnits="userSpaceOnUse">
<stop stop-color="#121212" stop-opacity="0"/>
<stop offset="0.1036" stop-color="#15221C" stop-opacity="0.1036"/>
<stop offset="0.721" stop-color="#247D56" stop-opacity="0.721"/>
<stop offset="1" stop-color="#2AA16D"/>
</linearGradient>
<linearGradient id="paint30_linear_11_112" x1="258.925" y1="435.862" x2="262.635" y2="402.875" gradientUnits="userSpaceOnUse">
<stop stop-color="#02B568"/>
<stop offset="1" stop-color="#227350"/>
</linearGradient>
<linearGradient id="paint31_linear_11_112" x1="294.774" y1="438.137" x2="294.774" y2="402.249" gradientUnits="userSpaceOnUse">
<stop stop-color="#00C26E"/>
<stop offset="0.1602" stop-color="#01BD6C"/>
<stop offset="0.3383" stop-color="#05B067"/>
<stop offset="0.5251" stop-color="#0B9A5E"/>
<stop offset="0.7178" stop-color="#147B51"/>
<stop offset="0.9132" stop-color="#1E5341"/>
<stop offset="1" stop-color="#243F39"/>
</linearGradient>
<linearGradient id="paint32_linear_11_112" x1="284.781" y1="387.821" x2="328.416" y2="394.853" gradientUnits="userSpaceOnUse">
<stop stop-color="#186644"/>
<stop offset="0.1999" stop-color="#157049"/>
<stop offset="0.5435" stop-color="#0E8C56"/>
<stop offset="0.9869" stop-color="#02B96A"/>
<stop offset="1" stop-color="#02BA6B"/>
</linearGradient>
<linearGradient id="paint33_linear_11_112" x1="306.617" y1="415.632" x2="296.377" y2="402.687" gradientUnits="userSpaceOnUse">
<stop stop-color="#02BA6B"/>
<stop offset="0.2117" stop-color="#05AE65"/>
<stop offset="0.594" stop-color="#0D8E57"/>
<stop offset="1" stop-color="#186644"/>
</linearGradient>
<linearGradient id="paint34_linear_11_112" x1="250.12" y1="413.522" x2="263.282" y2="401.797" gradientUnits="userSpaceOnUse">
<stop stop-color="#02BA6B"/>
<stop offset="1" stop-color="#186644"/>
</linearGradient>
<linearGradient id="paint35_linear_11_112" x1="236.062" y1="389.902" x2="263.73" y2="392.12" gradientUnits="userSpaceOnUse">
<stop stop-color="#02BA6B"/>
<stop offset="1" stop-color="#176945"/>
</linearGradient>
<linearGradient id="paint36_linear_11_112" x1="281.017" y1="410.493" x2="281.017" y2="359.962" gradientUnits="userSpaceOnUse">
<stop stop-color="#FFD03C"/>
<stop offset="0.1591" stop-color="#E2C267" stop-opacity="0.8409"/>
<stop offset="0.3573" stop-color="#C3B496" stop-opacity="0.6427"/>
<stop offset="0.5467" stop-color="#AAA8BB" stop-opacity="0.4533"/>
<stop offset="0.7222" stop-color="#98A0D5" stop-opacity="0.2778"/>
<stop offset="0.8785" stop-color="#8E9BE5" stop-opacity="0.1215"/>
<stop offset="1" stop-color="#8A99EB" stop-opacity="0"/>
</linearGradient>
<linearGradient id="paint37_linear_11_112" x1="243.009" y1="357.207" x2="271.452" y2="358.493" gradientUnits="userSpaceOnUse">
<stop stop-color="#A55083"/>
<stop offset="0.2544" stop-color="#964B84"/>
<stop offset="0.6997" stop-color="#824585"/>
<stop offset="1" stop-color="#7B4386"/>
</linearGradient>
<linearGradient id="paint38_linear_11_112" x1="238.08" y1="348.826" x2="263.039" y2="335.221" gradientUnits="userSpaceOnUse">
<stop stop-color="#FDAF48"/>
<stop offset="1" stop-color="#F98619"/>
</linearGradient>
<linearGradient id="paint39_linear_11_112" x1="237.926" y1="347.5" x2="262.336" y2="334.194" gradientUnits="userSpaceOnUse">
<stop stop-color="#FFDA7E"/>
<stop offset="1" stop-color="#FEC93E"/>
</linearGradient>
<linearGradient id="paint40_linear_11_112" x1="237.666" y1="343.88" x2="263.172" y2="334.94" gradientUnits="userSpaceOnUse">
<stop stop-color="#FDB147"/>
<stop offset="1" stop-color="#F88517"/>
</linearGradient>
<linearGradient id="paint41_linear_11_112" x1="237.867" y1="342.877" x2="259.699" y2="330.977" gradientUnits="userSpaceOnUse">
<stop stop-color="#FFDB80"/>
<stop offset="1" stop-color="#FEC93E"/>
</linearGradient>
<linearGradient id="paint42_linear_11_112" x1="240.482" y1="341.334" x2="257.02" y2="332.318" gradientUnits="userSpaceOnUse">
<stop stop-color="#FDB147"/>
<stop offset="1" stop-color="#FF9942"/>
</linearGradient>
<linearGradient id="paint43_linear_11_112" x1="240.83" y1="341.599" x2="256.955" y2="332.81" gradientUnits="userSpaceOnUse">
<stop stop-color="#FFDB7F"/>
<stop offset="0.0151" stop-color="#FFDA7D"/>
<stop offset="0.2578" stop-color="#FFD362"/>
<stop offset="0.5028" stop-color="#FECD4E"/>
<stop offset="0.7494" stop-color="#FECA42"/>
<stop offset="1" stop-color="#FEC93E"/>
</linearGradient>
<linearGradient id="paint44_linear_11_112" x1="241.182" y1="332.421" x2="245.473" y2="338.813" gradientUnits="userSpaceOnUse">
<stop stop-color="#62306C"/>
<stop offset="1" stop-color="#3F4683"/>
</linearGradient>
<linearGradient id="paint45_linear_11_112" x1="234.226" y1="332.164" x2="240.054" y2="328.987" gradientUnits="userSpaceOnUse">
<stop stop-color="#B4617D"/>
<stop offset="1" stop-color="#80457E"/>
</linearGradient>
<linearGradient id="paint46_linear_11_112" x1="321.005" y1="351.39" x2="306.305" y2="328.213" gradientUnits="userSpaceOnUse">
<stop stop-color="#7E4589"/>
<stop offset="1" stop-color="#4D2055"/>
</linearGradient>
<linearGradient id="paint47_linear_11_112" x1="300.986" y1="325.005" x2="291.69" y2="343.054" gradientUnits="userSpaceOnUse">
<stop stop-color="#B4558D"/>
<stop offset="1" stop-color="#84456C"/>
</linearGradient>
<linearGradient id="paint48_linear_11_112" x1="301.36" y1="328.252" x2="324.465" y2="350.803" gradientUnits="userSpaceOnUse">
<stop stop-color="#DE7792"/>
<stop offset="1" stop-color="#E092A7"/>
</linearGradient>
<linearGradient id="paint49_linear_11_112" x1="323.84" y1="357.133" x2="308.839" y2="370.101" gradientUnits="userSpaceOnUse">
<stop stop-color="#FFC977"/>
<stop offset="1" stop-color="#FC9B4C"/>
</linearGradient>
<linearGradient id="paint50_linear_11_112" x1="292.531" y1="346.025" x2="301.901" y2="352.068" gradientUnits="userSpaceOnUse">
<stop stop-color="#ED7A5A"/>
<stop offset="0.1879" stop-color="#DE7360"/>
<stop offset="0.5476" stop-color="#B8606F"/>
<stop offset="1" stop-color="#7F4586"/>
</linearGradient>
<linearGradient id="paint51_linear_11_112" x1="307.918" y1="356.406" x2="323.7" y2="367.281" gradientUnits="userSpaceOnUse">
<stop stop-color="#804581"/>
<stop offset="1" stop-color="#E36F63"/>
</linearGradient>
<linearGradient id="paint52_linear_11_112" x1="311.058" y1="358.795" x2="317.995" y2="363.773" gradientUnits="userSpaceOnUse">
<stop stop-color="#4D2057"/>
<stop offset="1" stop-color="#57202A"/>
</linearGradient>
<linearGradient id="paint53_linear_11_112" x1="296.096" y1="338.711" x2="292.245" y2="356.948" gradientUnits="userSpaceOnUse">
<stop stop-color="#FFCC7A"/>
<stop offset="0.3084" stop-color="#FEBE6D"/>
<stop offset="0.884" stop-color="#FC9B4C"/>
<stop offset="1" stop-color="#FC9344"/>
</linearGradient>
<linearGradient id="paint54_linear_11_112" x1="299.618" y1="343.931" x2="282.072" y2="347.01" gradientUnits="userSpaceOnUse">
<stop stop-color="#BA5C8F"/>
<stop offset="1" stop-color="#C2616D"/>
</linearGradient>
<linearGradient id="paint55_linear_11_112" x1="288.565" y1="338.111" x2="293.534" y2="350.011" gradientUnits="userSpaceOnUse">
<stop stop-color="#854566"/>
<stop offset="1" stop-color="#7F4585"/>
</linearGradient>
<linearGradient id="paint56_linear_11_112" x1="279.427" y1="317.597" x2="282.476" y2="324.63" gradientUnits="userSpaceOnUse">
<stop stop-color="#F6B64E"/>
<stop offset="1" stop-color="#F6864D"/>
</linearGradient>
<linearGradient id="paint57_linear_11_112" x1="333.348" y1="342.247" x2="329.814" y2="349.208" gradientUnits="userSpaceOnUse">
<stop stop-color="#F6B64E"/>
<stop offset="0.5971" stop-color="#F69B4D"/>
<stop offset="1" stop-color="#F6864D"/>
</linearGradient>
<linearGradient id="paint58_linear_11_112" x1="264.204" y1="306.63" x2="260.67" y2="313.591" gradientUnits="userSpaceOnUse">
<stop stop-color="#F6B64E"/>
<stop offset="0.5971" stop-color="#F69B4D"/>
<stop offset="1" stop-color="#F6864D"/>
</linearGradient>
<linearGradient id="paint59_linear_11_112" x1="275.214" y1="379.544" x2="279.463" y2="388.697" gradientUnits="userSpaceOnUse">
<stop stop-color="#F6B64E"/>
<stop offset="0.2902" stop-color="#F6AD4E"/>
<stop offset="0.7625" stop-color="#F6954D"/>
<stop offset="1" stop-color="#F6864D"/>
</linearGradient>
<linearGradient id="paint60_linear_11_112" x1="234.461" y1="361.545" x2="243.016" y2="366.39" gradientUnits="userSpaceOnUse">
<stop stop-color="#F6B64E"/>
<stop offset="1" stop-color="#F6864D"/>
</linearGradient>
<linearGradient id="paint61_linear_11_112" x1="289.607" y1="367.3" x2="285.487" y2="373.096" gradientUnits="userSpaceOnUse">
<stop stop-color="#F6B64E"/>
<stop offset="1" stop-color="#F6864D"/>
</linearGradient>
<clipPath id="clip0_11_112">
<rect width="359.039" height="446" fill="white" transform="translate(0 0.698486)"/>
</clipPath>
</defs>
</svg>
